HIERARCHY
ROOT Hips
{
	OFFSET 0.000000 0.000000 0.000000
	CHANNELS 6 Xposition Yposition Zposition Xrotation Yrotation Zrotation
	JOINT Chest
	{
		OFFSET 0.000000 0.009282 11.569106
		CHANNELS 3 Xrotation Yrotation Zrotation
		JOINT Chest2
		{
			OFFSET 0.000000 -0.016863 9.269641
			CHANNELS 3 Xrotation Yrotation Zrotation
			JOINT Chest3
			{
				OFFSET 0.000000 0.000000 8.374491
				CHANNELS 3 Xrotation Yrotation Zrotation
				JOINT Chest4
				{
					OFFSET 0.000000 0.000000 8.374493
					CHANNELS 3 Xrotation Yrotation Zrotation
					JOINT Neck
					{
						OFFSET 0.000000 -0.000001 12.152554
						CHANNELS 3 Xrotation Yrotation Zrotation
						JOINT Head
						{
							OFFSET 0.000000 -0.040100 7.802319
							CHANNELS 3 Xrotation Yrotation Zrotation
							End Site
							{
								OFFSET 0.000000 -0.020946 14.853096
							}
						}
					}
					JOINT RightCollar
					{
						OFFSET -2.894404 0.000000 6.791374
						CHANNELS 3 Xrotation Yrotation Zrotation
						JOINT RightShoulder
						{
							OFFSET -13.574684 0.000000 0.000000
							CHANNELS 3 Xrotation Yrotation Zrotation
							JOINT RightElbow
							{
								OFFSET -23.923903 0.000000 0.000000
								CHANNELS 3 Xrotation Yrotation Zrotation
								JOINT RightWrist
								{
									OFFSET -19.846718 -0.012765 0.000000
									CHANNELS 3 Xrotation Yrotation Zrotation
									End Site
									{
										OFFSET -14.973145 0.000000 0.000000
									}
								}
							}
						}
					}
					JOINT LeftCollar
					{
						OFFSET 2.894404 0.000000 6.791374
						CHANNELS 3 Xrotation Yrotation Zrotation
						JOINT LeftShoulder
						{
							OFFSET 13.574684 0.000000 0.000000
							CHANNELS 3 Xrotation Yrotation Zrotation
							JOINT LeftElbow
							{
								OFFSET 23.923903 0.000000 0.000000
								CHANNELS 3 Xrotation Yrotation Zrotation
								JOINT LeftWrist
								{
									OFFSET 19.846718 -0.012765 0.000000
									CHANNELS 3 Xrotation Yrotation Zrotation
									End Site
									{
										OFFSET 14.973145 0.000000 0.000000
									}
								}
							}
						}
					}
				}
			}
		}
	}
	JOINT RightHip
	{
		OFFSET -9.469263 -0.004642 0.045487
		CHANNELS 3 Xrotation Yrotation Zrotation
		JOINT RightKnee
		{
			OFFSET 0.000000 -0.002666 -40.478676
			CHANNELS 3 Xrotation Yrotation Zrotation
			JOINT RightAnkle
			{
				OFFSET 0.000000 -0.049110 -35.224068
				CHANNELS 3 Xrotation Yrotation Zrotation
				JOINT RightToe
				{
					OFFSET 0.000000 -12.539530 -6.151390
					CHANNELS 3 Xrotation Yrotation Zrotation
					End Site
					{
						OFFSET 0.000000 -5.044995 -1.291870
					}
				}
			}
		}
	}
	JOINT LeftHip
	{
		OFFSET 9.469263 -0.004642 0.045487
		CHANNELS 3 Xrotation Yrotation Zrotation
		JOINT LeftKnee
		{
			OFFSET 0.000000 -0.002666 -40.478676
			CHANNELS 3 Xrotation Yrotation Zrotation
			JOINT LeftAnkle
			{
				OFFSET 0.000000 -0.049110 -35.224068
				CHANNELS 3 Xrotation Yrotation Zrotation
				JOINT LeftToe
				{
					OFFSET 0.000000 -12.539530 -6.151390
					CHANNELS 3 Xrotation Yrotation Zrotation
					End Site
					{
						OFFSET 0.000000 -5.044995 -1.291870
					}
				}
			}
		}
	}
}
MOTION
Frames: 8
Frame Time: 0.016667
-11.307755 -5.709114 82.991699 3.884864 7.944756 -113.053558 3.506138 0.296494 -0.394064 1.555581 0.134741 -0.167390 1.555579 0.134742 -0.167391 1.166648 0.101483 -0.125205 16.416131 -1.052685 -0.772893 -5.710458 -1.642606 -1.783137 1.622335 -7.062948 1.852244 16.678782 -66.029659 55.564074 29.530299 -23.009931 71.251324 -35.430380 20.970499 46.105020 2.839238 9.496806 -6.793208 8.806650 60.700492 -48.523300 32.298298 23.372421 -67.422197 -33.142544 -26.347861 -46.906252 11.860758 -0.294162 -2.484426 2.421399 -0.055001 0.838019 -5.812446 -0.611577 -0.052678 0.004921 -0.054452 0.020633 11.662738 -0.087221 -0.023633 1.709727 -0.465175 1.978548 -4.808559 0.537965 -0.459112 0.016906 0.022063 -0.018311 
-11.307256 -5.713237 82.991493 3.885894 7.941753 -113.046113 3.495671 0.297200 -0.383034 1.551038 0.133952 -0.163043 1.551038 0.133952 -0.163042 1.163242 0.100878 -0.121939 16.493172 -1.038304 -0.766224 -5.567045 -1.619773 -1.764894 1.620970 -7.097465 1.857333 16.630408 -66.046918 55.533502 29.411454 -23.272847 71.124802 -35.200722 20.931168 45.717287 2.808485 9.494462 -6.767389 8.613738 60.602083 -48.405786 32.346143 23.505357 -67.368492 -33.061681 -26.368026 -46.310445 11.856688 -0.296026 -2.470016 2.422177 -0.055992 0.825218 -5.804445 -0.605086 -0.057087 0.001763 -0.051282 0.019488 11.663274 -0.090252 -0.008377 1.698324 -0.460365 1.964505 -4.803628 0.533240 -0.471062 0.018891 0.018747 -0.018104 
-11.307486 -5.719294 82.991333 3.886673 7.937682 -113.044951 3.484204 0.297447 -0.370825 1.546102 0.133239 -0.158104 1.546102 0.133239 -0.158104 1.159541 0.100330 -0.118245 16.563007 -1.025786 -0.765157 -5.437089 -1.598234 -1.757632 1.601799 -7.134622 1.854082 16.507087 -66.070223 55.454709 29.408124 -23.452168 70.991245 -35.253086 21.066520 45.556395 2.770064 9.490119 -6.732574 8.469749 60.506638 -48.321051 32.373871 23.675246 -67.304534 -33.077633 -26.315915 -45.794755 11.849291 -0.291055 -2.464144 2.426801 -0.064339 0.819575 -5.798861 -0.597987 -0.053655 0.000032 -0.047773 0.017553 11.661073 -0.089867 0.013178 1.691849 -0.456319 1.959748 -4.801026 0.527382 -0.485179 0.019895 0.016353 -0.017187 
-11.309571 -5.723330 82.991554 3.891053 7.938084 -113.045177 3.480439 0.295671 -0.359431 1.544227 0.131911 -0.152965 1.544226 0.131911 -0.152964 1.158137 0.099321 -0.114387 16.624001 -1.015934 -0.768000 -5.323632 -1.580057 -1.758576 1.558769 -7.161268 1.853964 16.486910 -66.053489 55.457957 29.392203 -23.670835 70.857154 -35.377419 21.290166 45.532346 2.729270 9.481500 -6.701485 8.409207 60.408044 -48.316410 32.351089 23.886322 -67.222886 -33.002607 -26.229683 -45.285834 11.852208 -0.294494 -2.467584 2.424803 -0.059542 0.811567 -5.791792 -0.598712 -0.040433 -0.001542 -0.044377 0.017613 11.668005 -0.090863 0.024094 1.680880 -0.453549 1.955540 -4.795640 0.522650 -0.485072 0.019370 0.014010 -0.016370 
-11.313717 -5.725592 82.992043 3.897585 7.940991 -113.049972 3.480107 0.292303 -0.348771 1.544032 0.129759 -0.148008 1.544032 0.129759 -0.148005 1.157992 0.097694 -0.110683 16.676033 -1.005311 -0.771231 -5.226784 -1.560222 -1.760073 1.532139 -7.165699 1.866992 16.628451 -65.986034 55.603546 29.301129 -23.920748 70.753110 -35.510802 21.500809 45.488507 2.689552 9.478735 -6.675651 8.377353 60.305694 -48.337218 32.303902 24.105742 -67.139161 -32.974780 -26.177050 -44.848658 11.863163 -0.297163 -2.476901 2.415577 -0.057719 0.815501 -5.781995 -0.598701 -0.029987 -0.003319 -0.040282 0.017663 11.681028 -0.093719 0.026848 1.669757 -0.449602 1.962093 -4.792014 0.519371 -0.492633 0.018301 0.011670 -0.016026 
-11.318843 -5.729041 82.992607 3.904922 7.945889 -113.055074 3.482329 0.293217 -0.336470 1.545350 0.129157 -0.142689 1.545351 0.129157 -0.142685 1.158982 0.097230 -0.106684 16.719767 -0.997714 -0.774275 -5.145423 -1.545866 -1.762412 1.522165 -7.172050 1.892317 16.782608 -65.905800 55.757153 29.149205 -24.217580 70.667876 -35.575033 21.612351 45.336460 2.653726 9.470702 -6.653331 8.344744 60.207858 -48.348758 32.262105 24.309123 -67.078591 -33.036894 -26.176205 -44.452633 11.870019 -0.295593 -2.477880 2.420171 -0.061064 0.819693 -5.779335 -0.598093 -0.025874 -0.005393 -0.035826 0.016212 11.696208 -0.093735 0.033042 1.658290 -0.446998 1.976004 -4.786920 0.515930 -0.500421 0.016566 0.009316 -0.015257 
-11.322271 -5.733948 82.993011 3.909716 7.950221 -113.062457 3.483609 0.297258 -0.321579 1.546403 0.130867 -0.136662 1.546404 0.130867 -0.136664 1.159774 0.098497 -0.102164 16.754495 -0.996432 -0.778805 -5.080914 -1.542382 -1.769806 1.519875 -7.186168 1.902985 16.846342 -65.858924 55.866272 29.019486 -24.581868 70.543628 -35.588410 21.641343 45.120616 2.625828 9.462588 -6.639137 8.240104 60.131374 -48.292460 32.274450 24.532749 -67.045595 -33.141461 -26.301139 -44.103898 11.869569 -0.289518 -2.456652 2.432849 -0.068471 0.807822 -5.779885 -0.593622 -0.025567 -0.006481 -0.033685 0.015238 11.707799 -0.093829 0.048525 1.649431 -0.440716 1.984152 -4.782564 0.511921 -0.516491 0.015291 0.006950 -0.014298 
-11.324372 -5.740328 82.992928 3.915975 7.956077 -113.065866 3.486553 0.300227 -0.312784 1.547822 0.131938 -0.133371 1.547823 0.131939 -0.133373 1.160838 0.099292 -0.099690 16.778267 -0.994849 -0.779300 -5.036736 -1.539630 -1.769852 1.503199 -7.206349 1.905982 16.798678 -65.819241 55.904849 28.975128 -24.949030 70.382060 -35.687062 21.728039 44.972462 2.599647 9.456460 -6.619512 8.113823 60.058352 -48.225271 32.294811 24.743229 -66.999928 -33.210159 -26.474489 -43.741597 11.868967 -0.284499 -2.437750 2.448916 -0.075721 0.799409 -5.782604 -0.588591 -0.030420 -0.006716 -0.032420 0.014178 11.719754 -0.092346 0.067921 1.639423 -0.437633 1.988902 -4.777605 0.507836 -0.532391 0.016205 0.005105 -0.013321 
